<?xml version="1.0" encoding="UTF-8" standalone="no"?>
<svg
   xmlns:dc="http://purl.org/dc/elements/1.1/"
   xmlns:cc="http://creativecommons.org/ns#"
   xmlns:rdf="http://www.w3.org/1999/02/22-rdf-syntax-ns#"
   xmlns:svg="http://www.w3.org/2000/svg"
   xmlns="http://www.w3.org/2000/svg"
   enable-background="new"
   viewBox="0 0 48 48"
   height="48"
   width="48"
   id="svg2"
   version="1.1">
  <metadata
     id="metadata8">
    <rdf:RDF>
      <cc:Work
         rdf:about="">
        <dc:format>image/svg+xml</dc:format>
        <dc:type
           rdf:resource="http://purl.org/dc/dcmitype/StillImage" />
        <dc:title></dc:title>
      </cc:Work>
    </rdf:RDF>
  </metadata>
  <defs
     id="defs6">
    <filter
       id="filter835"
       style="color-interpolation-filters:sRGB">
      <feBlend
         id="feBlend837"
         in2="BackgroundImage"
         mode="multiply" />
    </filter>
  </defs>
  <rect
     style="fill:#000000"
     id="rect871"
     width="48"
     height="48"
     x="-2.6482981e-14"
     y="-1.0966797e-05" />
  <g
     style="display:none"
     id="layer1">
    <path
       transform="translate(3.6201877e-6,-357.64677)"
       id="path819"
       d="m 22.682221,370.63449 c -2.287246,0.13591 -11.487683,-1.05787 -15.4659373,-8.55212 2.1643444,12.7129 6.8621643,27.08616 13.3053023,34.88477 0.07887,-0.23663 -0.148028,-2.39299 -0.504236,-4.79191 -0.775554,-5.22309 -0.820603,-8.78489 -0.152052,-12.02168 0.681619,-3.30007 -0.908713,-2.77251 -1.090458,-6.53494 -0.605751,0.2879 -1.015703,0.41853 -2.033563,2.11025 -0.703253,1.72189 -1.616357,2.9021 -2.819106,4.2735 1.458703,-3.06642 3.129215,-6.33539 5.513541,-8.57858 0.564699,-0.30222 0.773555,-0.31167 0.597647,-0.027 -0.180189,0.29156 0.326999,0.36437 1.520177,0.21825 2.248298,-0.27536 2.646561,-0.0432 3.91718,0.15082 0.574549,1.64996 3.73501,6.50223 5.133358,9.29775 -1.270299,-1.13228 -4.092175,-5.81383 -4.446086,-6.33493 -0.300024,0.89987 0.02122,1.32335 -0.744946,2.14714 -0.621943,1.20271 -0.723357,4.69315 -0.125647,4.32486 0.160404,-0.0988 0.48859,0.18829 0.729301,0.63807 0.564412,1.05461 0.548908,1.73232 -0.01737,0.75961 -0.428066,-0.73528 -1.211944,-0.63041 -1.211944,0.16219 0,0.2292 0.187535,0.30084 0.416744,0.15911 0.229209,-0.14159 0.416742,0.10771 0.416742,0.5542 0,0.51736 -0.264518,0.79079 -0.729299,0.75391 -0.541985,-0.043 -0.700253,0.20971 -0.616191,0.98398 0.06222,0.57303 0.130805,1.74276 0.152409,2.59944 0.02249,0.89226 0.212064,1.4508 0.443779,1.3076 0.224842,-0.139 0.368022,0.18726 0.322395,0.7345 -0.130238,1.56189 -0.03213,1.71147 0.665051,1.01428 0.834678,-0.8347 1.428836,-0.83686 1.428836,-0.004 0,0.35735 0.174576,0.54182 0.387947,0.40995 0.213371,-0.13186 0.518115,-0.0292 0.677206,0.22828 0.205876,0.3331 0.387673,0.30879 0.630641,-0.0844 0.216677,-0.3506 0.335462,-0.0243 0.325194,0.89318 -0.0089,0.79504 0.202318,2.57075 0.469378,3.94601 0.03217,5.07047 1.00803,2.64263 1.080369,6.5525 2.032256,-13.27038 8.62396,-29.92203 4.089722,-41.34169 -4.701512,6.96403 -9.978837,9.03204 -12.266083,9.16801 z m 5.43911,19.13682 c 0,-0.24276 0.187534,-0.32545 0.416746,-0.18379 0.229209,0.14159 0.416742,0.34026 0.416742,0.44133 0,0.10107 -0.187533,0.18379 -0.416742,0.18379 -0.229212,0 -0.416746,-0.1986 -0.416746,-0.44133 z"
       style="fill:#ffffff;fill-opacity:1;stroke-width:0.41674396" />
  </g>
  <g
     id="layer3">
    <g
       transform="matrix(1.0287311,0,0,1.0287311,-0.29140705,-0.97673021)"
       id="g836">
      <path
         style="opacity:1;fill:#b71c1c;fill-opacity:1;stroke-width:0.41674396"
         d="m 25.046875,20.460938 c -0.263694,1.472375 -0.20845,3.370215 0.240234,3.09375 0.160404,-0.0988 0.489758,0.186938 0.730469,0.636718 0.564412,1.05461 0.5487,1.732476 -0.01758,0.759766 -0.428066,-0.73528 -1.212891,-0.630491 -1.212891,0.162109 0,0.2292 0.18876,0.301886 0.417969,0.160157 0.229209,-0.141591 0.416016,0.106244 0.416016,0.552734 0,0.51736 -0.265688,0.790786 -0.730469,0.753906 -0.541985,-0.043 -0.699296,0.210105 -0.615234,0.984375 0.06222,0.57303 0.130739,1.742929 0.152343,2.599609 0.02249,0.892261 0.211645,1.451794 0.44336,1.308594 0.224842,-0.139 0.367892,0.187135 0.322265,0.734375 -0.130238,1.56189 -0.03117,1.710862 0.666016,1.013672 0.834678,-0.8347 1.427734,-0.836766 1.427734,-0.0039 0,0.35735 0.175301,0.542026 0.388672,0.410156 0.213371,-0.13186 0.518644,-0.02896 0.677735,0.228516 0.205876,0.3331 0.387891,0.309205 0.630859,-0.08398 0.08697,-0.140726 0.151665,-0.144109 0.205078,-0.07227 -0.09681,-3.176048 -0.950913,-4.681286 -1.570312,-6.425781 -1.128725,-3.178978 -2.33744,-5.201705 -2.572266,-6.8125 z M 28.376953,31.875 c 0.04981,0.0084 0.102853,0.03099 0.160156,0.06641 0.229209,0.14159 0.417969,0.340337 0.417969,0.441406 0,0.10107 -0.18876,0.183594 -0.417969,0.183594 -0.229212,0 -0.416015,-0.198676 -0.416015,-0.441406 0,-0.18207 0.106416,-0.275127 0.255859,-0.25 z"
         id="path840" />
      <path
         style="fill:#ffffff;fill-opacity:1;stroke-width:0.41674396"
         d="M 34.949219,3.8203125 C 30.247707,10.784342 24.968887,12.852311 22.681641,12.988281 20.394395,13.124191 11.195051,11.929797 7.2167969,4.4355469 9.3811413,17.148447 8.397544,20.433873 20.521484,39.320312 c 0.07887,-0.236629 -0.147698,-2.392095 -0.503906,-4.791015 -0.775554,-5.22309 -0.820895,-8.786648 -0.152344,-12.023438 0.681619,-3.30007 -0.908098,-2.770773 -1.089843,-6.533203 -0.605751,0.2879 -1.015344,0.417655 -2.033203,2.109375 -0.703254,1.72189 -1.617564,2.902038 -2.820313,4.273438 1.458703,-3.06642 3.129346,-6.334935 5.513672,-8.578125 0.564699,-0.30222 0.773564,-0.312014 0.597656,-0.02734 -0.180189,0.29156 0.326353,0.36487 1.519531,0.21875 2.248298,-0.27536 2.64735,-0.04363 3.917969,0.150391 0.574549,1.64996 3.734465,6.501355 5.132813,9.296875 -1.270299,-1.13228 -4.091402,-5.812885 -4.445313,-6.333985 -0.300024,0.89987 0.02007,1.322695 -0.746094,2.146485 -0.155067,0.299868 -0.277651,0.743389 -0.365234,1.232422 8.8e-5,6.02e-4 -8.8e-5,0.0014 0,0.002 -1.18e-4,6.6e-4 1.18e-4,0.0013 0,0.002 0.236106,1.610206 1.444385,3.631995 2.572266,6.808594 0.619399,1.744495 1.473502,3.249733 1.570312,6.425781 0.07966,0.107144 0.125287,0.415629 0.119141,0.964843 -0.0089,0.79504 0.20169,2.570053 0.46875,3.945313 0.03217,5.07047 1.009692,2.642864 1.082031,6.552734 -0.08949,-18.061417 8.829412,-18.902749 4.089844,-41.3417965 z m -9.90625,16.6679685 c -0.05676,0.322732 -0.0936,0.6594 -0.119141,0.994141 0.02554,-0.333399 0.06261,-0.672771 0.119141,-0.994141 z m -0.134766,1.236328 c -0.01804,0.335922 -0.02428,0.661675 -0.0078,0.939453 -0.01636,-0.27635 -0.01,-0.605571 0.0078,-0.939453 z m 0.05078,1.416016 c 0.0086,0.04446 0.01902,0.07873 0.0293,0.117187 -0.01021,-0.03838 -0.02075,-0.07287 -0.0293,-0.117187 z m 0.113282,0.326172 c 0.01647,0.02641 0.03196,0.05849 0.05078,0.07422 -0.01902,-0.0157 -0.03414,-0.04764 -0.05078,-0.07422 z m 0.214843,0.08789 c -0.05027,0.03097 -0.09427,0.02581 -0.134765,0.0059 0.04064,0.0203 0.08424,0.02527 0.134765,-0.0059 z m 0.333985,0.113281 c 0.06609,0.05782 0.136001,0.132082 0.203125,0.220703 -0.06773,-0.08915 -0.136433,-0.162878 -0.203125,-0.220703 z m 0.710937,1.224609 c 0.103604,0.294962 0.126225,0.491182 0.07031,0.523438 0.05595,-0.03228 0.03326,-0.228454 -0.07031,-0.523438 z m -0.833984,0.4375 c 0.03777,0.05022 0.06868,0.117225 0.08984,0.201172 -0.0213,-0.08463 -0.05166,-0.15101 -0.08984,-0.201172 z m 2.716797,6.585938 c -0.01108,0.0082 -0.02008,0.01654 -0.0293,0.02734 0.0089,-0.01039 0.01859,-0.0194 0.0293,-0.02734 z m -0.06055,0.380859 c 0.04219,0.10552 0.121212,0.189538 0.220703,0.234375 -0.09896,-0.04499 -0.178582,-0.12938 -0.220703,-0.234375 z m 0.767578,0.15625 c -0.02116,0.02197 -0.05208,0.04194 -0.08984,0.05859 0.03877,-0.017 0.06853,-0.03606 0.08984,-0.05859 z m 0.177734,1.203125 c -0.03372,0.0095 -0.07175,0.04487 -0.115234,0.115234 0.04439,-0.07183 0.08128,-0.09754 0.117187,-0.113281 -8.76e-4,2.11e-4 -0.0011,-0.0022 -0.002,-0.002 z"
         id="path834" />
    </g>
  </g>
  <g
     style="display:none;filter:url(#filter835)"
     id="layer2">
    <path
       style="fill:#9e9e9e"
       d="m 24.997937,20.07772 c 0.07648,1.672415 1.402956,3.762683 2.621587,7.194876 0.690611,1.945059 1.554735,4.083205 1.620371,7.411044 l -5.046194,0.98121 -1.617865,-10.51761 z"
       id="path827" />
  </g>
</svg>
